<?xml version="1.0" encoding="UTF-8"?>
<svg xmlns="http://www.w3.org/2000/svg" xmlns:xlink="http://www.w3.org/1999/xlink" width="22pt" height="22pt" viewBox="0 0 22 22" version="1.1">
<defs>
<radialGradient id="radial0" gradientUnits="userSpaceOnUse" cx="67.899" cy="67.871" fx="67.899" fy="67.871" r="63.123" gradientTransform="matrix(0.161971,0,0,0.161971,0,0.00315843)">
<stop offset="0" style="stop-color:rgb(83.137255%,89.411765%,96.862745%);stop-opacity:1;"/>
<stop offset="1" style="stop-color:rgb(49.803922%,70.980392%,96.862745%);stop-opacity:1;"/>
</radialGradient>
</defs>
<g id="surface1">
<path style=" stroke:none;fill-rule:nonzero;fill:rgb(32.941176%,44.313725%,68.627451%);fill-opacity:1;" d="M 22 10.996094 C 22 16.601562 17.605469 21.4375 12.019531 21.953125 C 6.429688 22.464844 1.203125 18.535156 0.179688 13.011719 C -0.84375 7.484375 2.605469 1.917969 8.019531 0.402344 C 13.4375 -1.117188 19.289062 1.832031 21.285156 7.089844 C 21.757812 8.335938 22 9.664062 22 10.996094 "/>
<path style=" stroke:none;fill-rule:nonzero;fill:url(#radial0);" d="M 21.222656 10.996094 C 21.222656 16.566406 16.570312 21.21875 10.996094 21.21875 C 5.425781 21.21875 0.773438 16.566406 0.773438 10.996094 C 0.773438 5.425781 5.425781 0.773438 10.996094 0.773438 C 16.570312 0.773438 21.222656 5.425781 21.222656 10.996094 "/>
<path style=" stroke:none;fill-rule:nonzero;fill:rgb(40.784314%,62.745098%,94.901961%);fill-opacity:1;" d="M 20.238281 7.023438 C 21.0625 11.835938 18.1875 16.675781 13.5625 18.25 C 8.65625 19.921875 3.136719 17.449219 1.085938 12.699219 C 2.070312 18.449219 7.984375 22.230469 13.617188 20.710938 C 19.429688 19.140625 22.632812 12.566406 20.238281 7.023438 "/>
<path style=" stroke:none;fill-rule:nonzero;fill:rgb(70.196078%,90.588235%,98.823529%);fill-opacity:1;" d="M 17.382812 6.457031 C 15.96875 6.75 14.339844 4.746094 13.113281 4.238281 C 10.824219 3.285156 7.960938 3.726562 5.886719 5.023438 C 3.691406 6.394531 2.132812 9.03125 1.890625 11.613281 C 1.890625 11.621094 1.890625 11.625 1.890625 11.617188 C 2.054688 10.054688 1.945312 8.582031 2.539062 7.066406 C 3.527344 4.558594 5.664062 2.59375 8.242188 1.804688 C 10.90625 0.988281 13.816406 1.507812 16.113281 3.0625 C 16.824219 3.542969 19.550781 6.007812 17.382812 6.457031 "/>
<path style=" stroke:none;fill-rule:nonzero;fill:rgb(100%,100%,100%);fill-opacity:1;" d="M 11.285156 5.75 L 11.285156 7.839844 C 11.285156 8.664062 11.234375 8.570312 12.050781 8.570312 C 13.101562 8.570312 16.285156 7.992188 16.285156 9.667969 C 16.285156 10.710938 16.847656 13.792969 15.199219 13.792969 C 14.730469 13.792969 11.285156 13.679688 11.285156 13.898438 L 11.285156 16.3125 C 11.285156 17.050781 10.527344 17.757812 9.851562 17.085938 C 8.816406 16.054688 7.785156 15.027344 6.75 13.996094 C 6.109375 13.355469 3.578125 11.558594 4.65625 10.476562 C 5.445312 9.402344 6.652344 8.476562 7.597656 7.535156 C 8.242188 6.890625 8.886719 6.242188 9.535156 5.597656 C 9.980469 5.148438 11.285156 4.652344 11.285156 5.75 "/>
<path style=" stroke:none;fill-rule:nonzero;fill:rgb(32.941176%,44.313725%,68.627451%);fill-opacity:1;" d="M 9.757812 5.167969 C 8.777344 6.148438 7.796875 7.128906 6.816406 8.109375 C 6.128906 8.796875 3.949219 10.3125 4.253906 11.484375 C 4.375 11.953125 4.859375 12.3125 5.183594 12.640625 C 5.839844 13.292969 6.5 13.949219 7.15625 14.601562 C 7.773438 15.21875 8.390625 15.832031 9.007812 16.449219 C 9.351562 16.792969 9.761719 17.363281 10.277344 17.445312 C 11.464844 17.640625 11.433594 16.492188 11.433594 15.699219 L 11.433594 14.308594 C 11.433594 13.878906 11.445312 13.9375 11.867188 13.9375 C 12.960938 13.9375 16.429688 14.554688 16.429688 12.757812 C 16.429688 11.6875 17.007812 8.425781 15.273438 8.425781 C 14.609375 8.332031 13.871094 8.425781 13.199219 8.425781 C 12.605469 8.425781 11.433594 8.742188 11.433594 8.046875 L 11.433594 6.003906 C 11.433594 5.183594 10.464844 4.457031 9.757812 5.167969 M 15.273438 13.648438 L 11.160156 13.648438 C 11.207031 13.648438 11.511719 18.542969 9.960938 16.988281 C 9.640625 16.800781 9.34375 16.375 9.085938 16.117188 C 8.398438 15.429688 7.710938 14.746094 7.023438 14.058594 C 6.457031 13.496094 3.785156 11.558594 4.757812 10.582031 C 5.5 9.5 6.773438 8.5625 7.699219 7.636719 C 8.246094 7.09375 9.960938 4.65625 10.9375 5.367188 C 11.65625 5.886719 10.5625 8.714844 11.40625 8.714844 L 13.910156 8.714844 C 14.496094 8.714844 15.566406 8.515625 15.972656 9.070312 C 16.371094 9.609375 16.140625 10.808594 16.140625 11.421875 C 16.140625 12.132812 16.398438 13.644531 15.273438 13.648438 "/>
</g>
</svg>
