<?xml version="1.0" encoding="UTF-8"?>
<svg xmlns="http://www.w3.org/2000/svg" xmlns:xlink="http://www.w3.org/1999/xlink" width="22pt" height="21pt" viewBox="0 0 22 21" version="1.1">
<defs>
<radialGradient id="radial0" gradientUnits="userSpaceOnUse" cx="68.929" cy="68.87" fx="68.929" fy="68.87" r="64.054" gradientTransform="matrix(0.159618,0,0,0.152363,0,0.00319962)">
<stop offset="0" style="stop-color:rgb(83.137255%,89.411765%,96.862745%);stop-opacity:1;"/>
<stop offset="1" style="stop-color:rgb(49.803922%,70.980392%,96.862745%);stop-opacity:1;"/>
</radialGradient>
</defs>
<g id="surface1">
<path style=" stroke:none;fill-rule:nonzero;fill:rgb(32.941176%,44.313725%,68.627451%);fill-opacity:1;" d="M 0 10.496094 C 0 15.847656 4.394531 20.464844 9.980469 20.953125 C 15.570312 21.445312 20.796875 17.695312 21.820312 12.417969 C 22.84375 7.144531 19.394531 1.832031 13.980469 0.382812 C 8.5625 -1.066406 2.710938 1.75 0.714844 6.765625 C 0.238281 7.957031 0 9.226562 0 10.496094 "/>
<path style=" stroke:none;fill-rule:nonzero;fill:url(#radial0);" d="M 0.777344 10.496094 C 0.777344 15.816406 5.429688 20.257812 11.003906 20.257812 C 16.574219 20.257812 21.226562 15.816406 21.226562 10.496094 C 21.226562 5.179688 16.574219 0.738281 11.003906 0.738281 C 5.429688 0.738281 0.777344 5.179688 0.777344 10.496094 "/>
<path style=" stroke:none;fill-rule:nonzero;fill:rgb(40.784314%,62.745098%,94.901961%);fill-opacity:1;" d="M 1.765625 6.703125 C 0.9375 11.300781 3.8125 15.914062 8.4375 17.421875 C 13.34375 19.015625 18.863281 16.65625 20.914062 12.121094 C 19.925781 17.609375 14.015625 21.21875 8.382812 19.769531 C 2.566406 18.269531 -0.632812 11.996094 1.765625 6.703125 "/>
<path style=" stroke:none;fill-rule:nonzero;fill:rgb(70.196078%,90.588235%,98.823529%);fill-opacity:1;" d="M 4.617188 6.164062 C 6.03125 6.445312 7.65625 4.53125 8.882812 4.046875 C 11.175781 3.136719 14.035156 3.558594 16.109375 4.796875 C 18.304688 6.105469 19.867188 8.621094 20.105469 11.085938 C 20.109375 11.09375 20.109375 11.097656 20.105469 11.089844 C 19.945312 9.597656 20.054688 8.191406 19.457031 6.746094 C 18.46875 4.351562 16.332031 2.476562 13.757812 1.722656 C 11.09375 0.945312 8.179688 1.441406 5.886719 2.925781 C 5.175781 3.382812 2.449219 5.734375 4.613281 6.164062 "/>
<path style=" stroke:none;fill-rule:nonzero;fill:rgb(100%,100%,100%);fill-opacity:1;" d="M 10.714844 5.488281 L 10.714844 7.480469 C 10.714844 8.269531 10.765625 8.179688 9.949219 8.179688 C 8.898438 8.179688 5.714844 7.628906 5.714844 9.230469 C 5.714844 10.222656 5.152344 13.164062 6.800781 13.164062 C 7.269531 13.164062 10.714844 13.058594 10.714844 13.265625 L 10.714844 15.570312 C 10.714844 16.273438 11.472656 16.949219 12.148438 16.308594 C 13.183594 15.324219 14.214844 14.34375 15.25 13.359375 C 15.890625 12.75 18.421875 11.035156 17.34375 10 C 16.554688 8.972656 15.347656 8.09375 14.402344 7.195312 C 13.757812 6.578125 13.113281 5.960938 12.464844 5.34375 C 12.019531 4.914062 10.710938 4.441406 10.710938 5.488281 "/>
<path style=" stroke:none;fill-rule:nonzero;fill:rgb(32.941176%,44.313725%,68.627451%);fill-opacity:1;" d="M 11.101562 4.785156 C 10.292969 5.105469 10.566406 6.382812 10.566406 7.035156 L 10.566406 8.042969 L 9.527344 8.042969 C 8.117188 8.042969 5.570312 7.507812 5.570312 9.460938 C 5.570312 10.65625 5.007812 13.304688 6.910156 13.304688 L 10.511719 13.304688 C 10.628906 13.304688 10.566406 14.160156 10.566406 14.285156 C 10.566406 14.859375 10.339844 16.039062 10.878906 16.460938 C 11.566406 16.996094 12.1875 16.464844 12.660156 16.015625 C 13.917969 14.820312 15.175781 13.625 16.433594 12.425781 C 17.300781 11.601562 18.367188 10.78125 17.203125 9.671875 C 15.984375 8.507812 14.761719 7.339844 13.542969 6.175781 C 12.9375 5.597656 12.109375 4.390625 11.101562 4.785156 M 5.863281 12.203125 C 5.863281 11.382812 5.328125 8.320312 6.726562 8.320312 C 7.96875 8.050781 9.5625 8.320312 10.839844 8.320312 C 11.289062 8.320312 9.929688 4.472656 11.8125 5.007812 C 12.1875 5.117188 12.53125 5.601562 12.789062 5.847656 C 13.464844 6.488281 14.136719 7.132812 14.808594 7.777344 C 15.394531 8.335938 17.847656 10.007812 17.429688 10.996094 C 17.269531 11.375 16.78125 11.707031 16.492188 11.984375 C 15.816406 12.625 15.144531 13.265625 14.472656 13.90625 C 13.914062 14.433594 12.210938 16.726562 11.222656 16.335938 C 10.226562 15.941406 11.476562 13.027344 10.59375 13.027344 C 9.703125 13.027344 5.859375 13.589844 5.859375 12.203125 "/>
</g>
</svg>
